<svg xmlns="http://www.w3.org/2000/svg" width="48" height="48" viewBox="0 0 48 48">
  <g>
    <circle cx="24" cy="24" r="24" fill="#fff"/>
    <path d="M24 12c3.31 0 6.31 1.18 8.66 3.13l6.44-6.44C34.44 5.09 29.55 3 24 3 14.61 3 6.44 9.61 3.44 18.09l7.91 6.16C12.61 17.09 17.81 12 24 12z" fill="#EA4335"/>
    <path d="M46.09 24.59c0-1.59-.14-3.13-.41-4.59H24v9.09h12.44c-.54 2.84-2.19 5.24-4.66 6.84l7.44 5.81C43.56 37.09 46.09 31.31 46.09 24.59z" fill="#4285F4"/>
    <path d="M10.44 28.25c-.54-1.59-.84-3.28-.84-5.09s.3-3.5.84-5.09l-7.91-6.16C2.09 15.09 1 19.41 1 24c0 4.59 1.09 8.91 3.53 12.09l7.91-6.16z" fill="#FBBC05"/>
    <path d="M24 46c5.55 0 10.44-1.84 14.09-5.09l-7.44-5.81c-2.09 1.41-4.81 2.25-6.65 2.25-5.19 0-9.39-4.09-10.56-9.41l-7.91 6.16C6.44 38.39 14.61 46 24 46z" fill="#34A853"/>
    <path d="M24 12c3.31 0 6.31 1.18 8.66 3.13l6.44-6.44C34.44 5.09 29.55 3 24 3 14.61 3 6.44 9.61 3.44 18.09l7.91 6.16C12.61 17.09 17.81 12 24 12z" fill-opacity=".1"/>
  </g>
</svg>